<svg width="10" height="9" viewBox="0 0 10 9" fill="none" xmlns="http://www.w3.org/2000/svg">
<path d="M9.49994 0.525C9.49994 1.56667 9.27294 2.59583 8.81894 3.6125C8.36494 4.62917 7.72111 5.55417 6.88744 6.3875C6.05377 7.22083 5.12877 7.8645 4.11244 8.3185C3.09611 8.7725 2.06694 8.99967 1.02494 9C0.874939 9 0.749939 8.95 0.649939 8.85C0.549939 8.75 0.499939 8.625 0.499939 8.475L0.499939 6.45C0.499939 6.33333 0.539606 6.22917 0.618939 6.1375C0.698272 6.04583 0.791939 5.99167 0.899939 5.975L2.64994 5.65C2.78327 5.63333 2.89577 5.6375 2.98744 5.6625C3.07911 5.6875 3.15827 5.73333 3.22494 5.8L4.44994 7.0125C4.75827 6.84583 5.05611 6.648 5.34344 6.419C5.63077 6.19 5.90794 5.93783 6.17494 5.6625C6.43327 5.40417 6.67294 5.13333 6.89394 4.85C7.11494 4.56667 7.31694 4.26667 7.49994 3.95L6.32494 2.775C6.24994 2.7 6.19377 2.602 6.15644 2.481C6.11911 2.36 6.10861 2.24133 6.12494 2.125L6.47494 0.4C6.50827 0.283333 6.56877 0.1875 6.65644 0.1125C6.74411 0.0375004 6.84194 0 6.94994 0H8.97494C9.12494 0 9.24994 0.0499992 9.34994 0.15C9.44994 0.25 9.49994 0.375 9.49994 0.525Z" fill="#FF4B4B"/>
</svg>
