<svg width="20" height="20" viewBox="0 0 20 20" fill="none" xmlns="http://www.w3.org/2000/svg">
<g clip-path="url(#clip0_36_308)">
<mask id="mask0_36_308" style="mask-type:luminance" maskUnits="userSpaceOnUse" x="0" y="0" width="20" height="20">
<path d="M0 0H20V20H0V0Z" fill="white"/>
</mask>
<g mask="url(#mask0_36_308)">
<mask id="mask1_36_308" style="mask-type:luminance" maskUnits="userSpaceOnUse" x="0" y="0" width="20" height="20">
<path d="M0 0H20V20H0V0Z" fill="white"/>
</mask>
<g mask="url(#mask1_36_308)">
<path d="M10 1.875C5.51992 1.875 1.875 5.51992 1.875 10C1.875 14.4801 5.51992 18.125 10 18.125C14.4801 18.125 18.125 14.4801 18.125 10C18.125 5.51992 14.4801 1.875 10 1.875ZM14.2285 7.27695L8.97852 13.527C8.92025 13.5963 8.85021 13.6505 8.76839 13.6894C8.68657 13.7284 8.60036 13.7486 8.50977 13.75H8.49922C8.41064 13.75 8.32589 13.7319 8.24499 13.6959C8.16408 13.6598 8.094 13.6088 8.03477 13.543L5.78477 11.043C5.66442 10.9153 5.60784 10.7639 5.61504 10.5886C5.62223 10.4133 5.69103 10.267 5.82143 10.1496C5.95183 10.0323 6.10457 9.97924 6.27963 9.9905C6.4547 10.0018 6.59938 10.0739 6.71367 10.207L8.48281 12.1727L13.2715 6.47305C13.3832 6.34384 13.5243 6.27245 13.6945 6.25888C13.8648 6.24531 14.0154 6.29347 14.1462 6.40334C14.277 6.51322 14.3504 6.6532 14.3664 6.82327C14.3825 6.99335 14.3365 7.14458 14.2285 7.27695Z" fill="#34C759"/>
</g>
</g>
</g>
<defs>
<clipPath id="clip0_36_308">
<rect width="20" height="20" fill="white"/>
</clipPath>
</defs>
</svg>
