<svg width="20" height="20" viewBox="0 0 20 20" fill="none" xmlns="http://www.w3.org/2000/svg">
<g clip-path="url(#clip0_36_324)">
<mask id="mask0_36_324" style="mask-type:luminance" maskUnits="userSpaceOnUse" x="0" y="0" width="20" height="20">
<path d="M0 0H20V20H0V0Z" fill="white"/>
</mask>
<g mask="url(#mask0_36_324)">
<mask id="mask1_36_324" style="mask-type:luminance" maskUnits="userSpaceOnUse" x="0" y="0" width="20" height="20">
<path d="M0 0H20V20H0V0Z" fill="white"/>
</mask>
<g mask="url(#mask1_36_324)">
<path d="M15.3906 18.7501C15.3248 18.7504 15.2606 18.7405 15.1979 18.7205C15.1353 18.7004 15.0772 18.6713 15.0238 18.6329L9.99999 14.9907L4.97616 18.6329C4.86605 18.7128 4.74297 18.7525 4.60694 18.752C4.4709 18.7515 4.34812 18.7109 4.23858 18.6302C4.12905 18.5496 4.05387 18.4443 4.01303 18.3146C3.9722 18.1848 3.97358 18.0555 4.01718 17.9267L5.97655 12.1231L0.898433 8.64073C0.785548 8.5634 0.706573 8.46014 0.661508 8.33095C0.616443 8.20175 0.614062 8.07177 0.654365 7.94101C0.694668 7.81025 0.769808 7.70417 0.879785 7.62276C0.989763 7.54135 1.11317 7.50047 1.25 7.50011H7.51484L9.40546 1.68175C9.44724 1.5529 9.52291 1.44864 9.63247 1.36899C9.74203 1.28934 9.86454 1.24951 9.99999 1.24951C10.1355 1.24951 10.258 1.28934 10.3675 1.36899C10.4771 1.44864 10.5527 1.5529 10.5945 1.68175L12.4851 7.50206H18.75C18.887 7.50199 19.0106 7.54259 19.121 7.62385C19.2313 7.7051 19.3067 7.81117 19.3473 7.94203C19.3878 8.0729 19.3856 8.20304 19.3406 8.33244C19.2955 8.46184 19.2165 8.56526 19.1035 8.64268L14.0234 12.1231L15.9816 17.9251C16.05 18.1275 16.0219 18.3154 15.8976 18.4891C15.7732 18.6627 15.6042 18.7497 15.3906 18.7501Z" fill="#FFB800"/>
</g>
</g>
</g>
<defs>
<clipPath id="clip0_36_324">
<rect width="20" height="20" fill="white"/>
</clipPath>
</defs>
</svg>
