<svg width="20" height="20" viewBox="0 0 20 20" fill="none" xmlns="http://www.w3.org/2000/svg">
<g clip-path="url(#clip0_36_292)">
<mask id="mask0_36_292" style="mask-type:luminance" maskUnits="userSpaceOnUse" x="0" y="0" width="20" height="20">
<path d="M0 0H20V20H0V0Z" fill="white"/>
</mask>
<g mask="url(#mask0_36_292)">
<mask id="mask1_36_292" style="mask-type:luminance" maskUnits="userSpaceOnUse" x="0" y="0" width="20" height="20">
<path d="M0 0H20V20H0V0Z" fill="white"/>
</mask>
<g mask="url(#mask1_36_292)">
<path d="M17.5418 15.5891L10.8844 3.22578C10.4125 2.34922 9.15546 2.34922 8.68319 3.22578L2.02616 15.5891C1.80216 16.0052 1.81117 16.4161 2.05319 16.8219C2.29521 17.2278 2.65247 17.431 3.12499 17.4317H16.4411C16.914 17.4317 17.2717 17.2288 17.5143 16.8228C17.7569 16.4167 17.766 16.0055 17.5418 15.5891ZM9.78397 15.5176C9.56823 15.5176 9.38409 15.4413 9.23154 15.2888C9.07899 15.1362 9.00272 14.9521 9.00272 14.7364C9.00272 14.5206 9.07899 14.3365 9.23154 14.1839C9.38409 14.0314 9.56823 13.9551 9.78397 13.9551C9.99971 13.9551 10.1839 14.0314 10.3364 14.1839C10.489 14.3365 10.5652 14.5206 10.5652 14.7364C10.5652 14.9521 10.489 15.1362 10.3364 15.2888C10.1839 15.4413 9.99971 15.5176 9.78397 15.5176ZM10.6324 7.66016L10.4082 12.4258C10.4082 12.5984 10.3472 12.7457 10.2251 12.8678C10.1031 12.9898 9.95578 13.0508 9.78319 13.0508C9.6106 13.0508 9.46329 12.9898 9.34125 12.8678C9.21921 12.7457 9.15819 12.5984 9.15819 12.4258L8.93397 7.66211C8.92335 7.42219 9.00063 7.21506 9.16582 7.04073C9.331 6.86641 9.53367 6.77809 9.77381 6.77578H9.78202C10.024 6.77566 10.2286 6.86298 10.3959 7.03776C10.5632 7.21254 10.6415 7.42079 10.6309 7.6625L10.6324 7.66016Z" fill="#FF6B6B"/>
</g>
</g>
</g>
<defs>
<clipPath id="clip0_36_292">
<rect width="20" height="20" fill="white"/>
</clipPath>
</defs>
</svg>
