<svg width="20" height="20" viewBox="0 0 20 20" fill="none" xmlns="http://www.w3.org/2000/svg">
<g clip-path="url(#clip0_36_275)">
<mask id="mask0_36_275" style="mask-type:luminance" maskUnits="userSpaceOnUse" x="0" y="0" width="20" height="20">
<path d="M0 0H20V20H0V0Z" fill="white"/>
</mask>
<g mask="url(#mask0_36_275)">
<mask id="mask1_36_275" style="mask-type:luminance" maskUnits="userSpaceOnUse" x="0" y="0" width="20" height="20">
<path d="M0 0H20V20H0V0Z" fill="white"/>
</mask>
<g mask="url(#mask1_36_275)">
<path d="M10.3125 16.2575C10.2126 16.2574 10.1152 16.2417 10.0203 16.2104C9.92537 16.1791 9.83776 16.1337 9.75742 16.0743L9.73164 16.0544L6.15898 13.1246H3.4375C3.17862 13.1246 2.95764 13.0331 2.77459 12.8501C2.59153 12.667 2.5 12.446 2.5 12.1871V7.81254C2.5 7.55366 2.59153 7.33268 2.77459 7.14963C2.95765 6.96657 3.17862 6.87504 3.4375 6.87504H6.1582L9.73086 3.94535L9.75664 3.92543C9.89905 3.82057 10.0584 3.76079 10.2346 3.7461C10.4109 3.73141 10.5779 3.76398 10.7357 3.84381C10.8935 3.92365 11.0187 4.03891 11.1113 4.18959C11.2039 4.34027 11.2501 4.50404 11.25 4.68089V15.3192C11.25 15.5781 11.1585 15.7991 10.9754 15.9821C10.7924 16.1652 10.5714 16.2575 10.3125 16.2575ZM13.75 13.125C13.5175 13.1249 13.3403 13.0259 13.2183 12.828C13.0963 12.6301 13.0875 12.4273 13.1918 12.2196C13.5625 11.4813 13.7504 10.7352 13.7504 10C13.7504 9.24379 13.5684 8.51879 13.1937 7.78402C13.1191 7.63088 13.1088 7.47351 13.1628 7.31194C13.2169 7.15036 13.3198 7.03086 13.4715 6.95343C13.6233 6.876 13.7804 6.86284 13.943 6.91392C14.1055 6.96501 14.2269 7.06572 14.307 7.21606C14.7734 8.13129 15 9.04184 15 10C15 10.9309 14.7656 11.8664 14.3086 12.7805C14.2556 12.8861 14.1787 12.9699 14.0782 13.032C13.9776 13.094 13.8682 13.125 13.75 13.125Z" fill="#34C759"/>
<path d="M15.625 15C15.5133 15.0001 15.4091 14.9722 15.3123 14.9164C15.2156 14.8607 15.1392 14.7844 15.0834 14.6877C15.0275 14.591 14.9995 14.4868 14.9995 14.3751C14.9995 14.2634 15.0274 14.1592 15.0832 14.0625C15.8203 12.7754 16.25 11.6972 16.25 9.99997C16.25 8.27653 15.8227 7.20622 15.0848 5.93942C15.0057 5.79098 14.9891 5.63588 15.0352 5.4741C15.0813 5.31232 15.1771 5.18922 15.3226 5.1048C15.4681 5.02037 15.6225 4.99828 15.7859 5.03854C15.9492 5.07879 16.0757 5.1701 16.1653 5.31247C16.9891 6.72497 17.5 8.00309 17.5 9.99997C17.5 11.9672 16.9899 13.2515 16.1672 14.6875C16.1113 14.7843 16.0349 14.8606 15.938 14.9165C15.8412 14.9723 15.7368 15.0001 15.625 15Z" fill="#34C759"/>
</g>
</g>
</g>
<defs>
<clipPath id="clip0_36_275">
<rect width="20" height="20" fill="white"/>
</clipPath>
</defs>
</svg>
