<svg width="120" height="60" viewBox="0 0 120 60" fill="none" xmlns="http://www.w3.org/2000/svg">
  <g>
    <path d="M92.5 20H105C106.105 20 107 20.8954 107 22V38C107 39.1046 106.105 40 105 40H92.5C91.3954 40 90.5 39.1046 90.5 38V22C90.5 20.8954 91.3954 20 92.5 20Z" fill="#1241a1"/>
    <path d="M134.5 20H147C148.105 20 149 20.8954 149 22V38C149 39.1046 148.105 40 147 40H134.5C133.395 40 132.5 39.1046 132.5 38V22C132.5 20.8954 133.395 20 134.5 20Z" fill="#1241a1"/>
    <path d="M113.5 20H126C127.105 20 128 20.8954 128 22V38C128 39.1046 127.105 40 126 40H113.5C112.395 40 111.5 39.1046 111.5 38V22C111.5 20.8954 112.395 20 113.5 20Z" fill="#1241a1"/>
    <path d="M134.5 44H147C148.105 44 149 44.8954 149 46V62C149 63.1046 148.105 64 147 64H134.5C133.395 64 132.5 63.1046 132.5 62V46C132.5 44.8954 133.395 44 134.5 44Z" fill="#1241a1"/>
    <path d="M92.5 44H105C106.105 44 107 44.8954 107 46V62C107 63.1046 106.105 64 105 64H92.5C91.3954 64 90.5 63.1046 90.5 62V46C90.5 44.8954 91.3954 44 92.5 44Z" fill="#1241a1"/>
    <path d="M113.5 44H126C127.105 44 128 44.8954 128 46V62C128 63.1046 127.105 64 126 64H113.5C112.395 64 111.5 63.1046 111.5 62V46C111.5 44.8954 112.395 44 113.5 44Z" fill="#1241a1"/>
    <path d="M134.5 68H147C148.105 68 149 68.8954 149 70V86C149 87.1046 148.105 88 147 88H134.5C133.395 88 132.5 87.1046 132.5 86V70C132.5 68.8954 133.395 68 134.5 68Z" fill="#1241a1"/>
    <path d="M92.5 68H105C106.105 68 107 68.8954 107 70V86C107 87.1046 106.105 88 105 88H92.5C91.3954 88 90.5 87.1046 90.5 86V70C90.5 68.8954 91.3954 68 92.5 68Z" fill="#1241a1"/>
    <path d="M113.5 68H126C127.105 68 128 68.8954 128 70V86C128 87.1046 127.105 88 126 88H113.5C112.395 88 111.5 87.1046 111.5 86V70C111.5 68.8954 112.395 68 113.5 68Z" fill="#1241a1"/>
  </g>
  <g>
    <path d="M135 20L120 40L105 20" stroke="#ff4b4b" stroke-width="3" stroke-linecap="round" stroke-linejoin="round"/>
    <path d="M120 40V88" stroke="#ff4b4b" stroke-width="3" stroke-linecap="round" stroke-linejoin="round"/>
  </g>
  <text x="92" y="100" font-family="Arial" font-weight="bold" font-size="14" fill="#18191b">SpecTower</text>
  <text x="92" y="115" font-family="Arial" font-size="10" fill="#56585c">Realty Group</text>
</svg>

