<svg width="20" height="21" viewBox="0 0 20 21" fill="none" xmlns="http://www.w3.org/2000/svg">
<mask id="mask0_107_81" style="mask-type:luminance" maskUnits="userSpaceOnUse" x="0" y="0" width="20" height="21">
<path d="M0 0.300537H20V20.3005H0V0.300537Z" fill="white"/>
</mask>
<g mask="url(#mask0_107_81)">
<mask id="mask1_107_81" style="mask-type:luminance" maskUnits="userSpaceOnUse" x="0" y="0" width="20" height="21">
<path d="M0 0.300537H20V20.3005H0V0.300537Z" fill="white"/>
</mask>
<g mask="url(#mask1_107_81)">
<path d="M10.0001 10.3005C12.7618 10.3005 15 8.06226 15 5.30054C15 2.53882 12.7618 0.300537 10.0001 0.300537C7.23835 0.300537 5.00006 2.53882 5.00006 5.30054C5.00006 8.06226 7.23835 10.3005 10.0001 10.3005ZM13.7423 11.5739L11.8751 19.0505L10.6251 13.738L11.8751 11.5505H8.12506L9.37507 13.738L8.12506 19.0505L6.25788 11.5739C3.47271 11.7067 1.25006 13.9841 1.25006 16.8005V18.4255C1.25006 19.4607 2.0899 20.3005 3.12506 20.3005H16.8751C17.9102 20.3005 18.7501 19.4607 18.7501 18.4255V16.8005C18.7501 13.9841 16.5274 11.7067 13.7423 11.5739Z" fill="white"/>
</g>
</g>
</svg>
